<?xml version="1.0" encoding="utf-8"?>
<!-- Generator: Adobe Illustrator 16.0.0, SVG Export Plug-In . SVG Version: 6.00 Build 0)  -->
<!DOCTYPE svg PUBLIC "-//W3C//DTD SVG 1.1//EN" "http://www.w3.org/Graphics/SVG/1.1/DTD/svg11.dtd">
<svg version="1.1" id="Layer_1" xmlns="http://www.w3.org/2000/svg" xmlns:xlink="http://www.w3.org/1999/xlink" x="0px" y="0px"
	 width="1568px" height="1400px" viewBox="0 0 1568 1400" enable-background="new 0 0 1568 1400" xml:space="preserve">
<g>
	<g>
		<rect x="0" fill="#FFFFFF" width="1568" height="1400"/>
	</g>
	<path fill="#FFF6DB" d="M203,1062.1v136.6c0,27.4,22.2,49.6,49.6,49.6h931.7c27.4,0,49.6-22.2,49.6-49.6v-136.6H203z"/>
	<path fill="#FFF6DB" d="M1304.5,1096.4c0,18.9-15.3,34.2-34.2,34.2h-96.5c-18.9,0-34.2-15.3-34.2-34.2l0,0
		c0-18.9,15.3-34.2,34.2-34.2h96.5C1289.2,1062.1,1304.5,1077.5,1304.5,1096.4L1304.5,1096.4z"/>
	<path fill="#FFF6DB" d="M128.2,1086.7c0,13.6,11,24.5,24.5,24.5h108.5c13.6,0,24.5-11,24.5-24.5l0,0c0-13.6-11-24.5-24.5-24.5
		H152.8C139.2,1062.1,128.2,1073.1,128.2,1086.7L128.2,1086.7z"/>
	<path fill="#87E4FF" d="M1389.2,523.1h-77.1v-21.1h13.2c12.7,0,23-10.3,23-23s-10.3-23-23-23h-13.2V325.4
		c0-89.1-72.2-161.3-161.3-161.3H344.2c-89.1,0-161.3,72.2-161.3,161.3v205.5h-82.2c-18.4,0-33.4,15-33.4,33.4
		c0,18.4,14.9,33.4,33.4,33.4h82.2v36c-1.1-0.2-2.2-0.3-3.4-0.3h-22.7c-13,0-23.6,10.6-23.6,23.6c0,13,10.6,23.6,23.6,23.6h22.7
		c1.2,0,2.3-0.1,3.4-0.3V1028h1129.2V771.3h46.6c15.7,0,28.4-12.7,28.4-28.4c0-15.7-12.7-28.4-28.4-28.4h-46.6v-142h77.1
		c13.7,0,24.8-11.1,24.8-24.8S1402.8,523.1,1389.2,523.1z"/>
	<path fill="#7BD0EB" d="M1070.2,832.3c-45.7,0-89,10.5-127.6,29.1c-34.8-60.5-100.1-101.4-174.9-101.4c-44,0-84.7,14.1-117.8,38
		c-4.2-0.1-8.3-0.3-12.5-0.3c-20.4,0-40.5,1.8-59.9,5.2c-43.6-20.7-93.1-32.5-145.6-32.5c-164.3,0-299.2,114.7-314.3,261.3h190.3
		h98.1c-0.7,4.9-1.4,9.8-1.7,14.7h376.2c-0.4-5-1-9.9-1.7-14.7h19.7h168.5h218.7h162.8C1309.1,915.9,1199.4,832.3,1070.2,832.3z"/>
	<g>
		<path fill="#FFD94D" d="M500.6,672.5c0,54.6-44.2,98.8-98.8,98.8c-54.5,0-98.8-44.2-98.8-98.8s44.2-98.8,98.8-98.8
			C456.4,573.8,500.6,618,500.6,672.5z"/>
		<path fill="#E6C243" d="M468.6,672.5c0,36.9-29.9,66.8-66.8,66.8c-36.9,0-66.8-29.9-66.8-66.8c0-36.9,29.9-66.8,66.8-66.8
			C438.7,605.8,468.6,635.7,468.6,672.5z"/>
		<path fill="#CCAD3C" d="M431.7,672.5c0,16.5-13.4,29.9-29.8,29.9c-16.5,0-29.8-13.4-29.8-29.9c0-16.5,13.4-29.8,29.8-29.8
			C418.3,642.7,431.7,656,431.7,672.5z"/>
	</g>
	<g>
		<path fill="#FFD94D" d="M689.3,672.5c0,61-49.4,110.4-110.4,110.4c-61,0-110.4-49.4-110.4-110.4c0-61,49.4-110.4,110.4-110.4
			C639.9,562.1,689.3,611.6,689.3,672.5z"/>
		<path fill="#E6C243" d="M653.5,672.5c0,41.2-33.4,74.6-74.6,74.6c-41.2,0-74.6-33.4-74.6-74.6c0-41.2,33.4-74.6,74.6-74.6
			C620.1,597.9,653.5,631.3,653.5,672.5z"/>
		<path fill="#CCAD3C" d="M612.3,672.5c0,18.4-14.9,33.4-33.4,33.4c-18.4,0-33.4-14.9-33.4-33.4c0-18.4,14.9-33.4,33.4-33.4
			C597.4,639.2,612.3,654.1,612.3,672.5z"/>
	</g>
	<g>
		<path fill="#FFD94D" d="M433.8,831.1c0,54.6-44.2,98.8-98.8,98.8c-54.6,0-98.8-44.2-98.8-98.8c0-54.6,44.2-98.8,98.8-98.8
			C389.6,732.3,433.8,776.5,433.8,831.1z"/>
		<path fill="#E6C243" d="M401.8,831.1c0,36.9-29.9,66.8-66.8,66.8c-36.9,0-66.8-29.9-66.8-66.8c0-36.9,29.9-66.8,66.8-66.8
			C371.9,764.3,401.8,794.2,401.8,831.1z"/>
		<circle fill="#CCAD3C" cx="335.1" cy="831.1" r="29.8"/>
	</g>
	<g>
		<path fill="#FFD94D" d="M766.9,831.1c0,54.6-44.2,98.8-98.8,98.8c-54.5,0-98.8-44.2-98.8-98.8c0-54.6,44.2-98.8,98.8-98.8
			C722.6,732.3,766.9,776.5,766.9,831.1z"/>
		<path fill="#E6C243" d="M734.8,831.1c0,36.9-29.9,66.8-66.8,66.8c-36.9,0-66.8-29.9-66.8-66.8c0-36.9,29.9-66.8,66.8-66.8
			C705,764.3,734.8,794.2,734.8,831.1z"/>
		<path fill="#CCAD3C" d="M697.9,831.1c0,16.5-13.4,29.8-29.8,29.8c-16.5,0-29.8-13.4-29.8-29.8c0-16.5,13.4-29.8,29.8-29.8
			C684.6,801.2,697.9,814.6,697.9,831.1z"/>
	</g>
	<g>
		<path fill="#FFD94D" d="M642.2,811.5c0,65.3-53,118.3-118.3,118.3c-65.3,0-118.3-53-118.3-118.3c0-65.3,53-118.3,118.3-118.3
			C589.2,693.2,642.2,746.2,642.2,811.5z"/>
		<path fill="#E6C243" d="M603.9,811.5c0,44.2-35.8,80-80,80c-44.2,0-80-35.8-80-80c0-44.2,35.8-80,80-80
			C568.1,731.6,603.9,767.4,603.9,811.5z"/>
		<path fill="#CCAD3C" d="M559.7,811.5c0,19.7-16,35.8-35.8,35.8s-35.8-16-35.8-35.8c0-19.7,16-35.8,35.8-35.8
			S559.7,791.8,559.7,811.5z"/>
	</g>
	<g>
		<rect x="757.1" y="919.2" fill="#4A4B4D" width="72.5" height="12.1"/>
		<g>
			<path fill="#3DBE6C" d="M1204.9,840.1h18.8v-1.8c0-20.1-32.6-18.5-32.6-18.5h-95.2v58.3h-67.6h-10.5v-30.8l-26.6-15.9v-11.6
				H886.5l-16.7,10.6c10.9-3.8,22.6-5.9,34.8-5.9c59,0,106.7,47.8,106.7,106.7c0,3.8-0.2,7.5-0.6,11.2h84.1
				c5.7-41.9,41.5-74.2,84.9-74.2c16.1,0,31.1,4.4,44,12.1v-16.7h-18.8V840.1z"/>
			<rect x="1204.9" y="840.1" fill="#37AB61" width="18.8" height="23.6"/>
			<polygon fill="#43CF76" points="1017.8,847.4 1017.8,878.1 1028.3,878.1 1028.3,841.2 1001.9,826.4 1001.9,819.9 991.2,819.9 
				991.2,831.4 			"/>
			<polygon fill="#37AB61" points="1001.9,819.8 1001.9,819.9 1095.9,819.9 			"/>
			<polygon fill="#37AB61" points="1028.3,841.2 1028.3,878.1 1095.9,878.1 1095.9,819.9 1001.9,819.9 1001.9,826.4 			"/>
			<path fill="#37AB61" d="M1095.9,819.9l-22.3-92.1c-3-13.3-14.9-13.2-14.9-13.2H921.2c-36.2,0-34.7,41.6-34.7,41.6v63.7H1095.9z"
				/>
			<g>
				<polygon fill="#FFFFFF" points="895.1,811.2 900.6,811.2 978.7,763.4 978.7,748.9 895.1,800 				"/>
				<polygon fill="#A1DBFF" points="978.7,811.2 978.7,763.4 900.6,811.2 				"/>
				<polygon fill="#FFFFFF" points="978.7,723.3 969.4,723.3 895.1,768.7 895.1,783.3 978.7,732.1 				"/>
				<polygon fill="#A1DBFF" points="895.1,783.3 895.1,800 978.7,748.9 978.7,732.1 				"/>
				<path fill="#A1DBFF" d="M921.2,723.3c-7.4,0-13.1,2.1-17.3,6.4c-9.1,9.4-8.7,26-8.7,26.5v12.5l74.2-45.4H921.2z"/>
			</g>
			<g>
				<path fill="#FFFFFF" d="M1065.1,729.7c-0.6-2.5-1.6-4-2.7-4.9l-76.1,46.5v14.6l80.5-49.2L1065.1,729.7z"/>
				<polygon fill="#A1DBFF" points="1073.4,763.9 996.1,811.2 1084.9,811.2 				"/>
				<path fill="#A1DBFF" d="M1058.7,723.3h-72.4v48l76.1-46.5C1061,723.6,1059.5,723.3,1058.7,723.3z"/>
				<polygon fill="#FFFFFF" points="1070.4,751.2 986.3,802.6 986.3,811.2 996.1,811.2 1073.4,763.9 				"/>
				<polygon fill="#A1DBFF" points="1066.8,736.6 986.3,785.9 986.3,802.6 1070.4,751.2 				"/>
			</g>
			<g>
				<path fill="#2B874C" d="M904.5,824.6c-12.2,0-23.9,2.1-34.8,5.9l-5,3.2v108.9h145.9c0.4-3.7,0.6-7.4,0.6-11.2
					C1011.3,872.4,963.5,824.6,904.5,824.6z"/>
				<path fill="#2B874C" d="M1094.8,942.5h35.5h93.3v-62c-12.9-7.7-27.9-12.1-44-12.1C1136.2,868.4,1100.5,900.7,1094.8,942.5z"/>
			</g>
			<g>
				<path fill="#231F20" d="M996.8,931.3c0,51-41.3,92.3-92.3,92.3c-51,0-92.3-41.3-92.3-92.3c0-51,41.3-92.3,92.3-92.3
					C955.5,839,996.8,880.4,996.8,931.3z"/>
				<path fill="#2E2829" d="M982.7,931.3c0,43.2-35,78.1-78.2,78.1c-43.2,0-78.2-35-78.2-78.1c0-43.2,35-78.2,78.2-78.2
					C947.7,853.2,982.7,888.1,982.7,931.3z"/>
				<path fill="#B3B4B5" d="M939,890.9c7.9,9.3,12.7,21.3,12.7,34.5c0,29.4-23.8,53.2-53.2,53.2c-13.2,0-25.2-4.8-34.5-12.7
					c9.8,11.4,24.2,18.7,40.4,18.7c29.4,0,53.2-23.8,53.2-53.2C957.7,915.1,950.5,900.6,939,890.9z"/>
				<path fill="#D1D3D4" d="M951.8,925.3c0-13.2-4.8-25.2-12.7-34.5c-9.3-7.9-21.3-12.7-34.5-12.7c-29.4,0-53.2,23.8-53.2,53.2
					c0,13.2,4.8,25.2,12.7,34.5c9.3,7.9,21.3,12.7,34.5,12.7C928,978.5,951.8,954.7,951.8,925.3z"/>
				<g>
					<path fill="#E6E6E6" d="M924.7,907.1c4.5,5.5,7.3,12.5,7.3,20.1c0,17.4-14.1,31.5-31.5,31.5c-7.7,0-14.7-2.7-20.1-7.3
						c5.8,6.9,14.5,11.3,24.2,11.3c17.4,0,31.5-14.1,31.5-31.5C936,921.6,931.6,912.9,924.7,907.1z"/>
					<path fill="#FFFFFF" d="M932,927.3c0-7.7-2.7-14.7-7.3-20.1c-5.5-4.5-12.5-7.3-20.1-7.3c-17.4,0-31.5,14.1-31.5,31.5
						c0,7.7,2.7,14.7,7.3,20.1c5.5,4.5,12.5,7.3,20.1,7.3C917.9,958.7,932,944.6,932,927.3z"/>
				</g>
				<g>
					<path fill="#1A1516" d="M912.6,923.6c0.1,0.5,0.1,0.9,0.1,1.4c0,6.2-5,11.2-11.2,11.2c-3.2,0-6.1-1.3-8.1-3.5
						c0.7,5.5,5.4,9.9,11.1,9.9c6.2,0,11.2-5,11.2-11.2C915.8,928.3,914.6,925.6,912.6,923.6z"/>
					<path fill="#2E2829" d="M901.6,936.1c6.2,0,11.2-5,11.2-11.2c0-0.5-0.1-0.9-0.1-1.4c-2-2.1-4.9-3.5-8.1-3.5
						c-6.2,0-11.2,5-11.2,11.2c0,0.5,0.1,0.9,0.1,1.4C895.5,934.8,898.4,936.1,901.6,936.1z"/>
				</g>
			</g>
			<g>
				<path fill="#231F20" d="M1249.1,954.1c0,38.4-31.1,69.5-69.5,69.5c-38.4,0-69.5-31.1-69.5-69.5c0-38.4,31.1-69.5,69.5-69.5
					C1218,884.6,1249.1,915.7,1249.1,954.1z"/>
				<path fill="#2E2829" d="M1238.5,954.1c0,32.5-26.3,58.8-58.8,58.8c-32.5,0-58.8-26.3-58.8-58.8c0-32.5,26.3-58.8,58.8-58.8
					C1212.2,895.3,1238.5,921.6,1238.5,954.1z"/>
				<path fill="#B3B4B5" d="M1205.6,923.6c6,7,9.6,16,9.6,26c0,22.1-17.9,40-40,40c-9.9,0-19-3.6-26-9.6
					c7.3,8.6,18.2,14.1,30.4,14.1c22.1,0,40-17.9,40-40C1219.7,941.9,1214.2,931,1205.6,923.6z"/>
				<path fill="#D1D3D4" d="M1215.2,949.6c0-9.9-3.6-19-9.6-26c-7-6-16-9.6-26-9.6c-22.1,0-40,17.9-40,40c0,9.9,3.6,19,9.6,26
					c7,6,16,9.6,26,9.6C1197.3,989.7,1215.2,971.7,1215.2,949.6z"/>
				<g>
					<path fill="#E6E6E6" d="M1194.8,935.9c3.4,4.1,5.5,9.4,5.5,15.2c0,13.1-10.6,23.7-23.7,23.7c-5.8,0-11-2.1-15.2-5.5
						c4.4,5.2,10.9,8.5,18.2,8.5c13.1,0,23.7-10.6,23.7-23.7C1203.4,946.8,1200.1,940.2,1194.8,935.9z"/>
					<path fill="#FFFFFF" d="M1200.3,951.1c0-5.8-2.1-11-5.5-15.2c-4.1-3.4-9.4-5.5-15.2-5.5c-13.1,0-23.7,10.6-23.7,23.7
						c0,5.8,2.1,11,5.5,15.2c4.1,3.4,9.4,5.5,15.2,5.5C1189.7,974.8,1200.3,964.1,1200.3,951.1z"/>
				</g>
				<g>
					<path fill="#1A1516" d="M1185.8,948.3c0,0.3,0.1,0.7,0.1,1c0,4.7-3.8,8.4-8.4,8.4c-2.4,0-4.5-1-6.1-2.6c0.5,4.2,4,7.4,8.3,7.4
						c4.7,0,8.4-3.8,8.4-8.4C1188.1,951.8,1187.2,949.8,1185.8,948.3z"/>
					<path fill="#2E2829" d="M1177.4,957.7c4.7,0,8.4-3.8,8.4-8.4c0-0.4-0.1-0.7-0.1-1c-1.5-1.6-3.7-2.6-6.1-2.6
						c-4.7,0-8.4,3.8-8.4,8.4c0,0.3,0.1,0.7,0.1,1C1172.9,956.7,1175,957.7,1177.4,957.7z"/>
				</g>
			</g>
			<path fill="#FFFFFF" d="M1057.1,848.1c0,1.8-1.5,3.3-3.3,3.3h-16.3c-1.8,0-3.3-1.5-3.3-3.3l0,0c0-1.8,1.5-3.3,3.3-3.3h16.3
				C1055.6,844.8,1057.1,846.3,1057.1,848.1L1057.1,848.1z"/>
			<path fill="#43CF76" d="M1017.8,821.3c0,1.8,1.5,3.3,3.3,3.3h66.4c1.8,0,3.3-1.5,3.3-3.3l0,0c0-1.8-1.5-3.3-3.3-3.3h-66.4
				C1019.3,818.1,1017.8,819.5,1017.8,821.3L1017.8,821.3z"/>
			<path fill="#37AB61" d="M1117.1,835.1c0,2.2,1.8,4,4,4h63c2.2,0,4-1.8,4-4l0,0c0-2.2-1.8-4-4-4h-63
				C1118.9,831.1,1117.1,832.9,1117.1,835.1L1117.1,835.1z"/>
			<path fill="#37AB61" d="M1117.1,851.3c0,2.2,1.8,4,4,4h27.5c2.2,0,4-1.8,4-4l0,0c0-2.2-1.8-4-4-4h-27.5
				C1118.9,847.4,1117.1,849.2,1117.1,851.3L1117.1,851.3z"/>
			<g>
				<polygon fill="#D1C970" points="1210.3,858.4 1210.3,839 1207.6,839 1207.6,861.8 1230,861.8 1230,858.4 				"/>
				<rect x="1210.3" y="839" fill="#FFF68A" width="19.7" height="19.4"/>
			</g>
			<path fill="#FF5757" d="M864.1,803.1c-6.3,0.3-11.3,5.5-11.3,11.9v4.9c0,6.4,5,11.6,11.3,11.9V803.1z"/>
			<rect x="864.1" y="800" fill="#2E2829" width="4.1" height="34.9"/>
			<rect x="1008.8" y="888.7" fill="#37AB61" width="87.1" height="15.7"/>
			<rect x="1008.8" y="919.2" fill="#37AB61" width="87.1" height="15.7"/>
			<g>
				<path fill="#4AE382" d="M1093.9,960.6c-3.6,0-6.5-2.9-6.5-6.5c0-50.9,41.4-92.3,92.3-92.3c29.5,0,57.4,14.3,74.7,38.2
					c2.1,2.9,1.5,7-1.4,9.1c-2.9,2.1-7,1.5-9.1-1.5c-14.9-20.5-38.9-32.8-64.2-32.8c-43.7,0-79.2,35.5-79.2,79.2
					C1100.4,957.7,1097.5,960.6,1093.9,960.6z"/>
			</g>
			<polygon fill="#2E8C50" points="1007.1,892.2 1007.9,904.4 1095.9,904.4 1017.8,898.3 			"/>
			<polygon fill="#2E8C50" points="1007.1,922.8 1007.9,935 1095.9,935 1017.8,928.9 			"/>
			<g>
				<path fill="#4AE382" d="M1009.1,959.3c-0.4,0-0.9,0-1.3-0.1c-3.5-0.7-5.8-4.2-5.1-7.7c1.4-6.6,2-13.4,2-20.2
					c0-55.3-45-100.2-100.2-100.2c-23.5,0-46.3,8.3-64.3,23.3c-2.8,2.3-6.9,1.9-9.2-0.8c-2.3-2.8-1.9-6.9,0.8-9.2
					c20.3-17,46.1-26.3,72.6-26.3c62.4,0,113.2,50.8,113.2,113.3c0,7.7-0.8,15.4-2.3,22.8C1014.9,957.2,1012.2,959.3,1009.1,959.3z"
					/>
			</g>
			<polygon fill="#2E8C50" points="1028.3,869.4 1028.3,878.1 1095.9,878.1 1031.7,873.8 			"/>
		</g>
		<g>
			<g>
				<polygon fill="#363738" points="738.1,935.4 501.4,922.4 264.8,935.4 275.6,949.2 731.9,943.3 				"/>
				<polygon fill="#404142" points="275.6,949.2 291.8,969.8 501.4,969.8 711.1,969.8 731.9,943.3 				"/>
			</g>
			<path fill="#58595B" d="M242.4,875v63.7h518.1V875H242.4z M747.5,925.6H255.4V888h492.1V925.6z"/>
			<g>
				<path fill="#231F20" d="M366.9,983.6c0,22.4-18.1,40.5-40.5,40.5c-22.4,0-40.5-18.1-40.5-40.5c0-22.4,18.1-40.5,40.5-40.5
					C348.7,943.1,366.9,961.3,366.9,983.6z"/>
				<path fill="#2E2829" d="M360.7,983.6c0,19-15.4,34.3-34.3,34.3s-34.3-15.4-34.3-34.3c0-19,15.4-34.3,34.3-34.3
					S360.7,964.7,360.7,983.6z"/>
				<path fill="#B3B4B5" d="M341.5,965.9c3.5,4.1,5.6,9.4,5.6,15.1c0,12.9-10.5,23.4-23.4,23.4c-5.8,0-11.1-2.1-15.1-5.6
					c4.3,5,10.6,8.2,17.8,8.2c12.9,0,23.4-10.5,23.4-23.4C349.7,976.5,346.5,970.2,341.5,965.9z"/>
				<path fill="#D1D3D4" d="M347.1,981c0-5.8-2.1-11.1-5.6-15.1c-4.1-3.5-9.4-5.6-15.1-5.6c-12.9,0-23.4,10.5-23.4,23.4
					c0,5.8,2.1,11.1,5.6,15.1c4.1,3.5,9.4,5.6,15.1,5.6C336.6,1004.4,347.1,993.9,347.1,981z"/>
				<g>
					<path fill="#1A1516" d="M334.9,975.5c0.1,0.5,0.1,0.9,0.1,1.4c0,6.5-5.3,11.9-11.9,11.9c-3.4,0-6.4-1.4-8.6-3.7
						c0.7,5.9,5.6,10.4,11.7,10.4c6.5,0,11.9-5.3,11.9-11.9C338.2,980.5,337,977.6,334.9,975.5z"/>
					<path fill="#2E2829" d="M323.2,988.8c6.6,0,11.9-5.3,11.9-11.9c0-0.5-0.1-1-0.1-1.4c-2.2-2.3-5.2-3.7-8.6-3.7
						c-6.5,0-11.9,5.3-11.9,11.9c0,0.5,0.1,1,0.1,1.4C316.8,987.3,319.8,988.8,323.2,988.8z"/>
				</g>
			</g>
			<g>
				<path fill="#231F20" d="M717.1,983.6c0,22.4-18.1,40.5-40.5,40.5c-22.4,0-40.5-18.1-40.5-40.5c0-22.4,18.1-40.5,40.5-40.5
					C698.9,943.1,717.1,961.3,717.1,983.6z"/>
				<path fill="#2E2829" d="M710.9,983.6c0,19-15.4,34.3-34.3,34.3c-18.9,0-34.3-15.4-34.3-34.3c0-19,15.4-34.3,34.3-34.3
					C695.5,949.3,710.9,964.7,710.9,983.6z"/>
				<path fill="#B3B4B5" d="M691.7,965.9c3.5,4.1,5.6,9.4,5.6,15.1c0,12.9-10.5,23.4-23.4,23.4c-5.8,0-11.1-2.1-15.1-5.6
					c4.3,5,10.7,8.2,17.8,8.2c12.9,0,23.4-10.5,23.4-23.4C699.9,976.5,696.7,970.2,691.7,965.9z"/>
				<path fill="#D1D3D4" d="M697.3,981c0-5.8-2.1-11.1-5.6-15.1c-4.1-3.5-9.4-5.6-15.1-5.6c-12.9,0-23.4,10.5-23.4,23.4
					c0,5.8,2.1,11.1,5.6,15.1c4.1,3.5,9.4,5.6,15.1,5.6C686.8,1004.4,697.3,993.9,697.3,981z"/>
				<g>
					<path fill="#1A1516" d="M685.1,975.5c0.1,0.5,0.1,0.9,0.1,1.4c0,6.5-5.3,11.9-11.9,11.9c-3.4,0-6.4-1.4-8.6-3.7
						c0.7,5.9,5.7,10.4,11.7,10.4c6.6,0,11.9-5.3,11.9-11.9C688.4,980.5,687.1,977.6,685.1,975.5z"/>
					<path fill="#2E2829" d="M673.4,988.8c6.6,0,11.9-5.3,11.9-11.9c0-0.5-0.1-1-0.1-1.4c-2.2-2.3-5.2-3.7-8.6-3.7
						c-6.5,0-11.8,5.3-11.8,11.9c0,0.5,0.1,1,0.1,1.4C667,987.3,670,988.8,673.4,988.8z"/>
				</g>
			</g>
			<g>
				<g>
					<polygon fill="#8C774A" points="269.5,769 269.5,863.4 254.9,866.1 254.9,871.7 274.8,871.7 274.8,769 					"/>
					<polygon fill="#A78E57" points="269.5,769 254.9,769 254.9,866.1 269.5,863.4 					"/>
				</g>
				<path fill="#8C774A" d="M265.5,782.8c0,1.8-1.4,3.3-3.3,3.3c-1.8,0-3.3-1.5-3.3-3.3c0-1.8,1.5-3.3,3.3-3.3
					C264,779.6,265.5,781,265.5,782.8z"/>
			</g>
			<g>
				<g>
					<polygon fill="#8C774A" points="387.8,769 387.8,863.4 373.2,866.1 373.2,871.7 393.1,871.7 393.1,769 					"/>
					<polygon fill="#A78E57" points="387.8,769 373.2,769 373.2,866.1 387.8,863.4 					"/>
				</g>
				<path fill="#8C774A" d="M383.8,782.8c0,1.8-1.5,3.3-3.3,3.3c-1.8,0-3.3-1.5-3.3-3.3c0-1.8,1.5-3.3,3.3-3.3
					C382.3,779.6,383.8,781,383.8,782.8z"/>
			</g>
			<g>
				<g>
					<polygon fill="#8C774A" points="506.2,769 506.2,863.4 491.5,866.1 491.5,871.7 511.4,871.7 511.4,769 					"/>
					<polygon fill="#A78E57" points="506.2,769 491.5,769 491.5,866.1 506.2,863.4 					"/>
				</g>
				<path fill="#8C774A" d="M502.1,782.8c0,1.8-1.4,3.3-3.3,3.3c-1.8,0-3.3-1.5-3.3-3.3c0-1.8,1.5-3.3,3.3-3.3
					C500.6,779.6,502.1,781,502.1,782.8z"/>
			</g>
			<g>
				<g>
					<polygon fill="#8C774A" points="624.5,769 624.5,863.4 609.8,866.1 609.8,871.7 629.7,871.7 629.7,769 					"/>
					<polygon fill="#A78E57" points="624.5,769 609.8,769 609.8,866.1 624.5,863.4 					"/>
				</g>
				<path fill="#8C774A" d="M620.4,782.8c0,1.8-1.4,3.3-3.3,3.3c-1.8,0-3.3-1.5-3.3-3.3c0-1.8,1.5-3.3,3.3-3.3
					C618.9,779.6,620.4,781,620.4,782.8z"/>
			</g>
			<g>
				<g>
					<polygon fill="#8C774A" points="742.8,769 742.8,863.4 728.1,866.1 728.1,871.7 748,871.7 748,769 					"/>
					<polygon fill="#A78E57" points="742.8,769 728.1,769 728.1,866.1 742.8,863.4 					"/>
				</g>
				<path fill="#8C774A" d="M738.7,782.8c0,1.8-1.5,3.3-3.3,3.3c-1.8,0-3.3-1.5-3.3-3.3c0-1.8,1.5-3.3,3.3-3.3
					C737.3,779.6,738.7,781,738.7,782.8z"/>
			</g>
			<rect x="242.4" y="871.7" fill="#5E5F61" width="518.1" height="6.5"/>
			<g>
				<rect x="258.9" y="888" fill="#4A4B4D" width="488.5" height="34.4"/>
				<polygon fill="#404142" points="258.9,922.4 258.9,888 255.4,888 255.4,925.6 747.5,925.6 747.5,922.4 				"/>
			</g>
		</g>
	</g>
	<g>
		<path fill="#4D945D" d="M1352.2,1024.2H84.8c-10.5,0-19,8.5-19,19c0,2.6,0.5,5.1,1.5,7.4h1302.4c1-2.3,1.5-4.8,1.5-7.4
			C1371.2,1032.7,1362.7,1024.2,1352.2,1024.2z"/>
		<path fill="#4D945D" d="M1521,1043.2c0-10.5-8.5-19-19-19h-57.5c-10.5,0-19,8.5-19,19c0,2.6,0.5,5.1,1.5,7.4h92.5
			C1520.4,1048.3,1521,1045.8,1521,1043.2z"/>
		<path fill="#7A6733" d="M1427,1050.6c2.9,6.8,9.6,11.6,17.5,11.6h57.5c7.9,0,14.6-4.8,17.5-11.6H1427z"/>
	</g>
	<rect x="274.8" y="769" opacity="0.2" fill="#414042" width="7.3" height="102.7"/>
	<rect x="393.1" y="769" opacity="0.2" fill="#414042" width="7.3" height="102.7"/>
	<rect x="511.4" y="769" opacity="0.2" fill="#414042" width="7.3" height="102.7"/>
	<rect x="629.7" y="769" opacity="0.2" fill="#414042" width="7.3" height="102.7"/>
	<polygon opacity="0.2" fill="#414042" points="755.4,871.7 748,871.7 748,769 755.4,784.8 	"/>
	<path fill="#4D945D" d="M152.7,1023.6c0,10.8-8.8,19.5-19.5,19.5c-10.8,0-19.5-8.7-19.5-19.5c0-10.8,8.7-19.5,19.5-19.5
		C144,1004,152.7,1012.8,152.7,1023.6z"/>
	<path fill="#4D945D" d="M1293.2,1023.6c0,10.8-8.7,19.5-19.5,19.5c-10.8,0-19.5-8.7-19.5-19.5c0-10.8,8.7-19.5,19.5-19.5
		C1284.4,1004,1293.2,1012.8,1293.2,1023.6z"/>
	<path fill="#4D945D" d="M432.2,1023.6c0,10.8-8.7,19.5-19.5,19.5c-10.8,0-19.5-8.7-19.5-19.5c0-10.8,8.8-19.5,19.5-19.5
		C423.4,1004,432.2,1012.8,432.2,1023.6z"/>
	<path fill="#4D945D" d="M500.6,1023.6c0,10.8-8.7,19.5-19.5,19.5c-10.8,0-19.5-8.7-19.5-19.5c0-10.8,8.7-19.5,19.5-19.5
		C491.8,1004,500.6,1012.8,500.6,1023.6z"/>
	<path fill="#4D945D" d="M475.8,1017.4c0,14.2-11.5,25.7-25.7,25.7c-14.2,0-25.7-11.5-25.7-25.7c0-14.2,11.5-25.7,25.7-25.7
		C464.3,991.7,475.8,1003.2,475.8,1017.4z"/>
	<path fill="#4D945D" d="M226.7,1026.5c-2.4-22-21-39.1-43.6-39.1c-22.6,0-41.2,17.1-43.6,39.1H226.7z"/>
	<path fill="#4D945D" d="M1273.6,1026.5c-2.4-22-21-39.1-43.6-39.1s-41.2,17.1-43.6,39.1H1273.6z"/>
	<path fill="#4D945D" d="M1090.7,1021.8c0,6.8,5.5,12.3,12.3,12.3h99.9c6.8,0,12.3-5.5,12.3-12.3l0,0c0-6.8-5.5-12.3-12.3-12.3H1103
		C1096.2,1009.5,1090.7,1015,1090.7,1021.8L1090.7,1021.8z"/>
	<path fill="#4D945D" d="M612.2,1152.7c0,12.2-9.9,22.1-22.1,22.1H253.8c-12.2,0-22.1-9.9-22.1-22.1l0,0c0-12.2,9.9-22.1,22.1-22.1
		h336.2C602.3,1130.6,612.2,1140.5,612.2,1152.7L612.2,1152.7z"/>
	<path fill="#4D945D" d="M817.4,1152.7c0,12.2-9.9,22.1-22.1,22.1h-77.1c-12.2,0-22.1-9.9-22.1-22.1l0,0c0-12.2,9.9-22.1,22.1-22.1
		h77.1C807.5,1130.6,817.4,1140.5,817.4,1152.7L817.4,1152.7z"/>
	<path fill="#4D945D" d="M936,1152.7c0,12.2-9.9,22.1-22.1,22.1c-12.2,0-22.1-9.9-22.1-22.1c0-12.2,9.9-22.1,22.1-22.1
		C926.1,1130.6,936,1140.5,936,1152.7z"/>
	<g>
		<path fill="#FFFFFF" d="M777.7,526.5c0.5,0,1,0,1.5,0.1c5.1-19.9,23.1-34.6,44.6-34.6c19.4,0,36,12.1,42.8,29.1
			c0.6,0,1.2-0.1,1.8-0.1c15.8,0,28.5,12.8,28.5,28.5c0,15.8-12.8,28.5-28.5,28.5c-5.7,0-10.9-1.7-15.3-4.5
			c-8,6.6-18.1,10.5-29.3,10.5c-13.4,0-25.5-5.8-33.9-15c-3.5,2.2-7.7,3.5-12.1,3.5c-12.7,0-23-10.3-23-23
			C754.6,536.8,765,526.5,777.7,526.5z"/>
		<path fill="#FFFFFF" d="M729.5,541.5c7.4,0,13.4,6,13.4,13.4c0,7.4-6,13.4-13.4,13.4c-7.4,0-13.4-6-13.4-13.4
			C716.1,547.6,722.1,541.5,729.5,541.5z"/>
		<path fill="#FFFFFF" d="M924.8,559.1c7.4,0,13.4,6,13.4,13.4c0,7.4-6,13.4-13.4,13.4c-7.4,0-13.4-6-13.4-13.4
			C911.4,565.2,917.4,559.1,924.8,559.1z"/>
		<path fill="#FFFFFF" d="M692.6,556.4c3.4,0,6.2,2.8,6.2,6.2c0,3.4-2.8,6.2-6.2,6.2c-3.4,0-6.2-2.8-6.2-6.2
			C686.4,559.2,689.2,556.4,692.6,556.4z"/>
	</g>
	<g>
		<path fill="#FFFFFF" d="M401.9,347.4c1.4,0,2.8,0.1,4.1,0.4c5.6-10.1,16.4-17,28.8-17c2.6,0,5.1,0.3,7.6,0.9
			c6-14.2,20.1-24.2,36.6-24.2c19.6,0,35.8,14.2,39,32.8c7.5,2.1,14,6.6,18.7,12.5c4.8-3.5,10.7-5.7,17.1-5.7
			c12,0,22.3,7.4,26.6,17.8c2.8-1.9,6.2-3.1,9.9-3.1c9.6,0,17.4,7.8,17.4,17.4c0,9.6-7.8,17.4-17.4,17.4c-4.8,0-9.2-2-12.3-5.1
			c-5.1,7.9-14,13.1-24.1,13.1c-6.4,0-12.3-2.1-17.1-5.7c-6.8,8.5-17.2,14-29,14c-16.9,0-31.2-11.4-35.6-26.9
			c-3.7-0.6-7.2-1.8-10.4-3.4c-6,8.4-15.8,13.9-26.9,13.9c-6.6,0-12.7-1.9-17.8-5.2c-4.2,3.3-9.4,5.2-15.2,5.2
			c-13.6,0-24.7-11-24.7-24.7C377.3,358.4,388.3,347.4,401.9,347.4z"/>
		<path fill="#FFFFFF" d="M339.6,361.8c9.6,0,17.4,7.8,17.4,17.4c0,9.6-7.8,17.4-17.4,17.4c-9.6,0-17.4-7.8-17.4-17.4
			C322.2,369.6,330,361.8,339.6,361.8z"/>
		<path fill="#FFFFFF" d="M290.3,381c5.7,0,10.2,4.6,10.2,10.2c0,5.7-4.6,10.2-10.2,10.2c-5.7,0-10.2-4.6-10.2-10.2
			C280.1,385.6,284.7,381,290.3,381z"/>
	</g>
	<g>
		<path fill="#FFFFFF" d="M952.4,353.1c2.5,0,4.9,0.4,7.1,1.1c6.9-9.7,18.3-16.1,31.2-16.1c11,0,20.8,4.6,27.8,12
			c4-1.4,8.2-2.2,12.6-2.4c7.6-14.9,23.1-25,40.9-25c19.9,0,36.8,12.7,43.2,30.3c0.9-0.1,1.9-0.1,2.8-0.1
			c15.2,0,27.6,12.3,27.6,27.6c0,15.2-12.4,27.6-27.6,27.6c-5.8,0-11.2-1.8-15.6-4.9c-7.7,6.8-17.6,11-28.5,11.4
			c-7.7,14.7-23,24.7-40.7,24.7c-17.7,0-33-10-40.7-24.7c-0.6,0-1.3,0.1-1.9,0.1c-12.9,0-24.2-6.4-31.2-16.1
			c-2.2,0.7-4.6,1.1-7.1,1.1c-12.9,0-23.3-10.4-23.3-23.3C929.1,363.5,939.5,353.1,952.4,353.1z"/>
		<path fill="#FFFFFF" d="M1180.6,378.9c8,0,14.6,6.5,14.6,14.6s-6.5,14.6-14.6,14.6c-8.1,0-14.6-6.5-14.6-14.6
			S1172.6,378.9,1180.6,378.9z"/>
	</g>
	<path fill="#7A6733" d="M67.3,1050.6c2.9,6.8,9.6,11.6,17.5,11.6h149.4c0,0.1,0,0.2,0,0.3c0,16.7,13.5,30.2,30.2,30.2h320
		c16.7,0,30.2-13.5,30.2-30.2c0-0.1,0-0.2,0-0.3h56.9c0,0.1,0,0.2,0,0.3c0,16.7,13.5,30.2,30.2,30.2H832c16.7,0,30.2-13.5,30.2-30.2
		c0-0.1,0-0.2,0-0.3h490c7.9,0,14.6-4.8,17.5-11.6H67.3z"/>
</g>
</svg>
