<?xml version="1.0" encoding="utf-8"?>
<!-- Generator: Adobe Illustrator 22.0.1, SVG Export Plug-In . SVG Version: 6.00 Build 0)  -->
<svg version="1.1" id="vv" xmlns="http://www.w3.org/2000/svg" xmlns:xlink="http://www.w3.org/1999/xlink" x="0px" y="0px"
	 viewBox="0 0 2272 1872" style="enable-background:new 0 0 2272 1872;" xml:space="preserve">
<style type="text/css">
	.st0{fill:none;stroke:#5A5958;stroke-miterlimit:10;}
	.st1{fill:#C66D46;}
	.st2{fill:#FFC83E;}
	.st3{fill:#B25738;}
	.st4{fill:#A55438;}
	.st5{fill:#B77548;}
	.st6{fill:#CC8550;}
	.st7{fill:#995F3F;}
	.st8{fill:#A3673E;}
	.st9{fill:#D65F8A;}
	.st10{fill:#F47DAE;}
	.st11{fill:#AF4E75;}
	.st12{fill:#845434;}
	.st13{fill:#AF805D;}
	.st14{fill:#E5AB7F;}
	.st15{fill:#C69267;}
	.st16{fill:#61B563;}
	.st17{fill:#75D875;}
	.st18{fill:#F2A068;}
	.st19{fill:#4E964E;}
	.st20{fill:#5B5A59;}
	.st21{fill:#444443;}
	.st22{fill:#9E9B9A;}
	.st23{fill:#8E8A88;}
	.st24{fill:#6D6A6A;}
	.st25{fill:#465066;}
	.st26{fill:#664A37;}
	.st27{fill:#BC503F;}
	.st28{fill:#9B3C32;}
	.st29{fill:#4C3729;}
	.st30{fill:#563D2D;}
	.st31{fill:#63A598;}
	.st32{fill:#56968A;}
	.st33{fill:#4C877B;}
	.st34{fill:#3B6D61;}
	.st35{fill:none;}
</style>
<g id="Layer_1_1_">
</g>
<g id="Layer_2">
</g>
<g>
	<g>
		<rect class="st0" width="2272" height="1872"/>
	</g>
	<g>
		<rect class="st1" width="2272" height="1872"/>
	</g>
	<circle class="st2" cx="498.6" cy="823.5" r="187.9"/>
	<path class="st3" d="M405.7,936c4.5-4.5,190.4-2.5,295.8-1.1c39,0.5,71-31,71-70v0c0-22.8,18.5-41.4,41.4-41.4h80
		c57.4,0,103.9,46.5,103.9,103.9v36.9c0,28.9,23.4,52.2,52.2,52.2h27.3c15.6,0,30.7,6.2,41.7,17.3l0,0c12.5,12.5,29.4,19.5,47,19.5
		h9c71,0,128.5,57.5,128.5,128.5v320.7H348.1L405.7,936z"/>
	<path class="st2" d="M1303.5,1181.9c0-71-57.5-128.5-128.5-128.5h-9c-17.6,0-34.5-7-47-19.5v0c-11.1-11.1-26.1-17.3-41.7-17.3H1050
		c-28.9,0-52.2-23.4-52.2-52.2v-36.9c0-57.4-46.5-103.9-103.9-103.9h-80c-15.4,0-28.8,8.4-35.9,20.8c6.3-3.8,13.7-6.1,21.6-6.1h80
		c57.4,0,103.9,46.5,103.9,103.9v36.9c0,28.9,23.4,52.2,52.2,52.2h27.3c15.6,0,30.7,6.2,41.7,17.3c12.5,12.5,29.4,19.5,47,19.5h9
		c71,0,128.5,57.5,128.5,128.5v306h14.3V1181.9z"/>
	<path class="st4" d="M1433.6,936c0,0,4-317.9,0-437.2c0-1.2-0.1-2.5-0.1-3.7c-1.9-86.8,68.7-157.8,155.5-157.8h2.5
		c0,0,145.9-24,238.2-15.4c92.3,8.6,199.6-30.8,199.6-30.8V936H1433.6z"/>
	<path class="st2" d="M1466.4,515.1c0-1.2-0.1-2.5-0.1-3.7c-1.9-86.8,68.7-157.8,155.5-157.8h2.5c0,0,145.9-24,238.2-15.4
		c60.7,5.7,128-9.4,166.8-20.5v-26.6c0,0-107.3,39.4-199.6,30.8c-92.3-8.6-238.2,15.4-238.2,15.4h-2.5
		c-86.8,0-157.3,71.1-155.5,157.8c0,1.2,0.1,2.5,0.1,3.7c4,119.2,0,437.2,0,437.2h32.9C1467.3,869.7,1469.9,618.2,1466.4,515.1z"/>
	<path class="st4" d="M811.5,1203c0-57.7-46.8-104.6-104.6-104.6h-14.2c-64.5,0-123.9-35.1-155-91.5l-33.4-60.6
		c-32.9-59.6-90.4-101.6-157.2-114.8l0,0c-67-13.2-115.3-71.9-115.3-140.2v-85.1c0-113.1-91.7-204.8-204.8-204.8H0v1451.4h811.5
		v-181.3V1203z"/>
	<path class="st2" d="M706.9,1098.4h-14.2c-64.5,0-123.9-35.1-155-91.5l-33.4-60.6c-32.9-59.6-90.4-101.6-157.2-114.8h0
		c-67-13.2-115.3-71.9-115.3-140.2v-85.1c0-113.1-91.7-204.8-204.8-204.8H0v13.8h6.4c113.1,0,204.8,91.7,204.8,204.8v85.1
		c0,68.3,48.3,127,115.3,140.2h0c66.8,13.2,124.3,55.2,157.2,114.8l33.4,60.6c31.1,56.5,90.5,91.5,155,91.5h14.2
		c57.7,0,104.6,46.8,104.6,104.6v468.5v167.6h20.6v-181.3V1203C811.5,1145.2,764.7,1098.4,706.9,1098.4z"/>
	<path class="st5" d="M2135.6,249.6c-143.2,0-269.3,94.4-309.6,231.8l-35.5,120.9c-27.7,94.3-114.2,159.1-212.5,159.1h-146.6
		c-102.9,0-195.7,61.8-235.5,156.7l-56,133.7c-55.7,133-185.7,219.5-329.9,219.5h0c-62.6,0-118.4,39.5-139.3,98.5
		c-3.6,10.1-7.2,19.9-10.7,28.6h61.4c89.8,0,172,50.3,213,130.2l175.9,343.4H2272V249.6H2135.6z"/>
	<path class="st6" d="M1508.9,1239.5l-29.1,32.6c-22.5,25.3-54.8,39.7-88.6,39.7h-18.1c-37.1,0-71.5,19.2-91.1,50.7l-10.3,16.7
		c-43.2,69.7-119.3,112.1-201.2,112.1H910.9c8.9,11.5,16.9,24,23.6,37.2l175.9,343.4H2272v-707h-596.7
		C1611.7,1165,1551.2,1192.1,1508.9,1239.5z"/>
	<path class="st7" d="M1277.7,1718.2v-90.4c0-60.4-49-109.4-109.4-109.4H929.1c1.9,3.3,3.7,6.7,5.5,10.1l175.9,343.4l-24.7-48.1
		L1277.7,1718.2z"/>
	<path class="st8" d="M2272,1872v-524.2h-276.6c-32.5,0-64.7,5.6-95.2,16.6l-153.1,55c-25.2,9-51.7,13.7-78.5,13.7h-70.3
		c-54.7,0-103.9,33.6-123.8,84.5l-19.2,49.1c-17.3,44.3-49.6,81.1-91.2,104l-278.3,153.2l24.7,48.1H2272z"/>
	<g>
		<polygon class="st9" points="1977.2,1625.2 2015.7,1483.6 2074.6,1450.1 2085.3,1503.9 2041.7,1588.5 		"/>
		<polygon class="st10" points="2074.6,1450.1 2015.7,1483.6 2015.7,1483.6 2040.2,1514.2 		"/>
		<polygon class="st11" points="2040.2,1514.2 2084.8,1501.4 2074.6,1450.1 		"/>
		<polygon class="st11" points="1998.9,1612.9 2041.7,1588.5 2085.3,1503.9 2084.8,1501.4 2040.2,1514.2 		"/>
	</g>
	<g>
		<polygon class="st9" points="1716.4,1621.2 1668.8,1523.8 1685.3,1476.5 1717.4,1501.2 1734.4,1569.4 		"/>
		<polygon class="st10" points="1685.3,1476.5 1668.8,1523.8 1668.8,1523.8 1697.4,1528.9 		"/>
		<polygon class="st11" points="1697.4,1528.9 1715.9,1500.1 1685.3,1476.5 		"/>
		<polygon class="st11" points="1722.4,1603.9 1734.4,1569.4 1717.4,1501.2 1715.9,1500.1 1697.4,1528.9 		"/>
	</g>
	<g>
		<polygon class="st9" points="1562.7,1655.2 1528.1,1584.4 1540,1550 1563.4,1568 1575.7,1617.5 		"/>
		<polygon class="st10" points="1540,1550 1528.1,1584.4 1528.1,1584.4 1548.8,1588.1 		"/>
		<polygon class="st11" points="1548.8,1588.1 1562.3,1567.1 1540,1550 		"/>
		<polygon class="st11" points="1567,1642.6 1575.7,1617.5 1563.4,1568 1562.3,1567.1 1548.8,1588.1 		"/>
	</g>
	<path class="st12" d="M2205.4,1508.7c-5-2.7-10.1-5.5-15.8-6c-14.1-1.2-33.7,30.6-27.8,43.4c-12.7,2.2-28.4,3.1-35.4-7.7
		c-2.3-3.5-3.2-7.8-4.8-11.6c-7.9-18.3-33.8-18.5-41.4-0.1c-5.6,13.3-11.5,26.9-21.5,37.4c-10,10.5-24.9,17.4-38.9,14.1
		c-4.4-1-8.6-3.1-11.6-6.5c-5.4-6.1-5.5-15.2-9.1-22.5c-2-4.2-6.9-6.4-13.2-7.3c-23.3-3.1-44.6,14.4-46.2,37.8
		c-1,15-10.1,30.7-21.7,41.1c-14.2,12.8-37.7,21.1-51.5,7.8c-2.6-2.5-4.6-5.8-6.2-9.7c-9.5-22.8-28.4-40.4-51.3-49.6
		c-0.1-0.1-0.3-0.1-0.4-0.2c-16.4-6.8-32.5-22.7-48.8-15.7c-7.3,3.1-11.9,10.2-17.4,15.9c-12.3,13-10.1,13-28,12.6
		c-16.9-0.4-29.7-14.7-44.5-23c-25.3-14.2-56.1-19.6-72.2,4.6c-6.1,9.2-8.6,20.2-13.9,29.9c-10.6,19.1-31.3,30.3-51.8,38
		s-42.2,12.9-60.6,24.8c-2.1,1.4-4.1,3.9-5.1,6.3c31.4-4.2,63.7-4.2,95.5-4.2c142.1,0.3,284.2,0.6,426.3,1
		c30.7,0.1,62.4-0.1,90.6-12.2c35.2-15.2,60.9-47.6,96.5-61.9c21.7-8.7,45.5-10,68.8-10.9c9.3-0.4,18.6-0.7,28-1v-28.1
		c-2.9-1.5-5.7-3.1-8.5-4.6C2244.1,1529.9,2224.7,1519.3,2205.4,1508.7z"/>
	<path class="st7" d="M2175.2,1585.3c-35.6,14.2-61.3,46.6-96.5,61.9c-28.2,12.2-59.9,12.3-90.6,12.2c-142.1-0.3-284.2-0.6-426.3-1
		c-52-0.1-105.3,0-153.9,18.3c-37.4,14.1-70.1,38.2-103.1,60.8c-64.6,44.2-132.5,83.5-203,117.5l8.7,17H2272v-298.7
		c-9.3,0.3-18.7,0.6-28,1C2220.7,1575.3,2196.9,1576.6,2175.2,1585.3z"/>
	<g>
		<polygon class="st9" points="1430.6,1766.3 1396,1695.5 1408,1661.1 1431.3,1679.1 1443.7,1728.7 		"/>
		<polygon class="st10" points="1408,1661.1 1396,1695.5 1396,1695.5 1416.8,1699.2 		"/>
		<polygon class="st11" points="1416.8,1699.2 1430.3,1678.2 1408,1661.1 		"/>
		<polygon class="st11" points="1435,1753.7 1443.7,1728.7 1431.3,1679.1 1430.3,1678.2 1416.8,1699.2 		"/>
	</g>
	<path class="st12" d="M2272,1609.9h-170.8c-59,0-116.4,19.3-163.5,54.8l-83.4,63c-15.4,11.6-33.1,19.6-52,23.5l-64.2,13.3
		c-37.5,7.8-76.5-1.5-106.6-25.2v0c-24.6-19.4-55-30-86.4-30h-63.7c-38.6,0-75.4,16-101.8,44.1l-21.8,23.3l-80.1,52.5l-107.3,42.7
		H2272V1609.9z"/>
	<path class="st6" d="M968.3,1352.8h65.8c118.1,0,213.8-95.7,213.8-213.8v-17.4c0-102.5,83.1-185.6,185.6-185.6h158.7
		c33.4,0,60.6,27.1,60.6,60.6v0c0,35.5,28.8,64.2,64.2,64.2h74.8c68.9,0,124.8-55.9,124.8-124.8V759.1c0-16.3,13.2-29.6,29.6-29.6h0
		c36.4,0,66-29.5,66-66v0c0-76.6,62.1-138.8,138.8-138.8H2272V249.6h-136.4c-143.2,0-269.3,94.4-309.6,231.8l-35.5,120.9
		c-27.7,94.3-114.2,159.1-212.5,159.1h-146.6c-102.9,0-195.7,61.8-235.5,156.7l-56,133.7c-55.7,133-185.7,219.5-329.9,219.5h0
		c-62.6,0-118.4,39.5-139.3,98.5c-3.6,10.1-7.2,19.9-10.7,28.6h61.4c40.4,0,79.2,10.2,113.5,28.6
		C862.7,1382.5,912.1,1352.8,968.3,1352.8z"/>
	<path class="st2" d="M829.9,1279.3L829.9,1279.3c144.2,0,274.2-86.6,329.9-219.5l56-133.7c39.7-94.9,132.6-156.7,235.5-156.7h146.6
		c98.3,0,184.8-64.8,212.5-159.1l35.5-120.9c40.3-137.4,166.4-231.8,309.6-231.8H2272v-7.9h-136.4c-143.2,0-269.3,94.4-309.6,231.8
		l-35.5,120.9c-27.7,94.3-114.2,159.1-212.5,159.1h-146.6c-102.9,0-195.7,61.8-235.5,156.7l-56,133.7
		c-55.7,133-185.7,219.5-329.9,219.5h0c-62.6,0-118.4,39.5-139.3,98.5c-3.6,10.1-7.2,19.9-10.7,28.6H683c2.5-6.5,5.1-13.5,7.6-20.6
		C711.5,1318.7,767.3,1279.3,829.9,1279.3z"/>
	<g>
		<path class="st13" d="M0,1433.1v-323.4h118.6c53.8,0,101.9,33.3,120.9,83.6l9.3,24.7c12.1,32.1,42.9,53.4,77.2,53.4h101.1
			c49.4,0,95.3,25.1,122,66.6l48.6,75.7L0,1433.1z"/>
		<path class="st14" d="M1110.4,1872H207.9v-473.6h513.7c89.8,0,172,50.3,213,130.2L1110.4,1872z"/>
		<path class="st2" d="M934.6,1528.6c-40.9-79.9-123.2-130.2-213-130.2h-32.4c89.8,0,172,50.3,213,130.2L1078,1872h32.4
			L934.6,1528.6z"/>
		<path class="st15" d="M902.5,1872H0v-473.6h513.7c89.8,0,172,50.3,213,130.2L902.5,1872z"/>
		<path class="st13" d="M618,1703.1l-90.6-14.5c-47.8-7.7-88.9-37.9-110.5-81.2l0,0c-18.5-37.1-56.4-60.5-97.8-60.5H0V1872h811.5
			l-45.6-71.7C732.7,1748.2,678.9,1712.9,618,1703.1z"/>
		<path class="st6" d="M503,1771.3H352.7c-34.5,0-67.6-13.6-92.2-37.8l-14.3-14.1c-24.6-24.2-57.7-37.8-92.2-37.8H0V1872h665.5
			l-57-57C580.5,1787,542.6,1771.3,503,1771.3z"/>
		<path class="st14" d="M269.7,1491.3H0v-58.3h269.7c16.1,0,29.1,13,29.1,29.1v0C298.9,1478.3,285.8,1491.3,269.7,1491.3z"/>
	</g>
	<g>
		<g>
			<path class="st16" d="M65.2,1398.4c0,0-0.1-96.1-24.8-116.2c0,0,49.4,5.5,43,116.2H65.2z"/>
			<path class="st17" d="M49.9,1285.8c11.1,16.5,24.8,49.8,23.2,112.6h10.3C88,1319,63.9,1293.7,49.9,1285.8z"/>
		</g>
		<g>
			<path class="st16" d="M95.5,1398.4c0,0,0.1-96.1,24.8-116.2c0,0-49.4,5.5-43,116.2H95.5z"/>
			<path class="st17" d="M110.8,1285.8c-11.1,16.5-24.8,49.8-23.2,112.6H77.3C72.7,1319,96.8,1293.7,110.8,1285.8z"/>
		</g>
		<g>
			<path class="st16" d="M108,1398.4c0,0,0.1-87.7,22.7-106.1c0,0-45.1,5.1-39.3,106.1H108z"/>
			<path class="st17" d="M122.1,1295.5c-10.1,15.1-22.6,45.5-21.2,102.8h-9.5C87.2,1325.9,109.3,1302.8,122.1,1295.5z"/>
		</g>
	</g>
	<path class="st18" d="M2223.2,1195.7h-388c-15.8,0-28.6,12.8-28.6,28.6v0c0,15.8,12.8,28.6,28.6,28.6h388
		c15.8,0,28.6-12.8,28.6-28.6v0C2251.8,1208.5,2239,1195.7,2223.2,1195.7z"/>
	<g>
		<g>
			<path class="st16" d="M174.3,1398.4c0,0-0.1-85-24.8-102.8c0,0,49.4,4.9,43,102.8H174.3z"/>
			<path class="st17" d="M158.9,1298.7c11.1,14.6,24.8,44.1,23.2,99.7h10.3C197,1328.1,172.9,1305.8,158.9,1298.7z"/>
		</g>
		<g>
			<path class="st16" d="M204.5,1398.4c0,0,0.1-85,24.8-102.8c0,0-49.4,4.9-43,102.8H204.5z"/>
			<path class="st17" d="M219.8,1298.7c-11.1,14.6-24.8,44.1-23.2,99.7h-10.3C181.7,1328.1,205.8,1305.8,219.8,1298.7z"/>
		</g>
		<g>
			<path class="st16" d="M217,1398.4c0,0,0.1-77.7,22.7-93.9c0,0-45.1,4.5-39.3,93.9H217z"/>
			<path class="st17" d="M231.1,1307.4c-10.1,13.3-22.6,40.3-21.2,91h-9.5C196.3,1334.2,218.3,1313.8,231.1,1307.4z"/>
		</g>
	</g>
	<g>
		<g>
			<path class="st16" d="M314,1398.4c0,0-0.1-85-24.8-102.8c0,0,49.4,4.9,43,102.8H314z"/>
			<path class="st17" d="M298.6,1298.7c11.1,14.6,24.8,44.1,23.2,99.7h10.3C336.7,1328.1,312.6,1305.8,298.6,1298.7z"/>
		</g>
		<g>
			<path class="st16" d="M348.1,1398.4c0,0,0.1-77.7,22.7-93.9c0,0-45.1,4.5-39.3,93.9H348.1z"/>
			<path class="st17" d="M362.1,1307.4c-10.1,13.3-22.6,40.3-21.2,91h-9.5C327.3,1334.2,349.3,1313.8,362.1,1307.4z"/>
		</g>
	</g>
	<g>
		<g>
			<path class="st16" d="M450.5,1398.4c0,0-0.1-85-24.8-102.8c0,0,49.4,4.9,43,102.8H450.5z"/>
			<path class="st17" d="M435.1,1298.7c11.1,14.6,24.8,44.1,23.2,99.7h10.3C473.2,1328.1,449.1,1305.8,435.1,1298.7z"/>
		</g>
		<g>
			<path class="st16" d="M484.6,1398.4c0,0,0.1-77.7,22.7-93.9c0,0-45.1,4.5-39.3,93.9H484.6z"/>
			<path class="st17" d="M498.6,1307.4c-10.1,13.3-22.6,40.3-21.2,91H468C463.8,1334.2,485.8,1313.8,498.6,1307.4z"/>
		</g>
	</g>
	<g>
		<g>
			<path class="st16" d="M584.1,1398.4c0,0-0.1-75.3-22-91c0,0,43.7,4.3,38.1,91H584.1z"/>
			<path class="st17" d="M570.5,1310.2c9.8,12.9,21.9,39,20.5,88.2h9.2C604.3,1336.2,582.9,1316.4,570.5,1310.2z"/>
		</g>
		<g>
			<path class="st16" d="M614.4,1398.4c0,0,0.1-68.7,20.1-83.1c0,0-39.9,4-34.8,83.1H614.4z"/>
			<path class="st17" d="M626.8,1317.8c-9,11.8-20,35.6-18.7,80.6h-8.4C595.9,1341.6,615.4,1323.5,626.8,1317.8z"/>
		</g>
	</g>
	<g>
		<path class="st17" d="M846.1,1433.4c-36.8-22.5-79.7-35-124.5-35H513.7c45.3,0,88.6,12.8,125.7,35.7
			C722.5,1433.8,795.7,1433.6,846.1,1433.4z"/>
		<path class="st19" d="M207.9,1398.4H0v35.8c41.5,0.5,117.2,0.8,207.9,0.8V1398.4z"/>
		<path class="st16" d="M639.4,1434.1c-37.1-22.9-80.5-35.7-125.7-35.7H207.9v36.5C339.5,1435,502.7,1434.5,639.4,1434.1z"/>
	</g>
	<path class="st20" d="M1980.4,1321.7c-7.9-3.9-17.5-1-22,6.6c-31.8,54.5-148.7,255.4-151.8,261.6l26.9,12.6l153.9-257.1
		C1992.5,1337.1,1989.2,1326.1,1980.4,1321.7z"/>
	<path class="st21" d="M1929.7,1405.5L1929.7,1405.5c-7.5-3-16.1-0.1-20.1,6.9c-45,77.4-100.8,173.4-103,177.7l26.9,12.6l104-173.7
		C1942.6,1420.3,1938.9,1409.2,1929.7,1405.5z"/>
	<path class="st22" d="M1821.8,1582.6l-30.3-4.2c-9.3-1.3-18.7,2.6-24.3,10.1l-52.6,82.2c0,0,10.1-3.5,21.9,1.9
		c11.7,5.5,13.3,14.9,30.5,5.5c17.2-9.4,23.5-15.7,32.9-8.6s11,6.3,21.9,2.3c11-3.9,20.4,1.6,20.4,1.6l12.8-38.9
		c3.2-9.6,0.5-20.1-6.8-27.1L1821.8,1582.6z"/>
	<path class="st23" d="M1842,1620.3c-4-9.6-38.4-20.3-54.1-24.8c-4.6-1.3-9.5,0.6-12,4.7l-43.5,71c1.3,0.4,2.7,0.9,4.1,1.6
		c11.7,5.5,13.3,14.9,30.5,5.5c17.2-9.4,23.5-15.7,32.9-8.6c7.6,5.7,10.1,6.3,16.4,4.3C1830,1652.7,1844.9,1627.3,1842,1620.3z"/>
	<path class="st24" d="M1826.3,1661.9c-11,3.9-12.5,4.7-21.9-2.3c-9.4-7-15.7-0.8-32.9,8.6c-17.2,9.4-18.8,0-30.5-5.5
		c-8.4-3.9-16-3.2-19.6-2.5l-6.8,10.5c0,0,10.1-3.5,21.9,1.9c11.7,5.5,13.3,14.9,30.5,5.5c17.2-9.4,23.5-15.7,32.9-8.6
		c9.4,7,11,6.3,21.9,2.3c11-3.9,20.4,1.6,20.4,1.6l3.5-10.5C1842.9,1661.7,1835.1,1658.8,1826.3,1661.9z"/>
	<path class="st12" d="M1724.3,1665.3c-9-2.1-17.4,4.4-25.9,8c-7.9,3.4-16.6,4.3-25.2,5.2c-6.5,0.7-13.1,1.4-19.6,2.1
		c-7.5,0.8-16,2.2-20.1,8.5c6.8-1.8,15.3-3.4,22-1.7c3.8,1,7.5,3,11.3,2.3c34.2-6.9,69.1,3.3,104.1,4.2h95.7
		c7.3,0,14.6-0.1,21.9,0.1c3,0.1,6.5-0.2,8-2.8c1.5-2.7,2.5-4.3,1.3-7.2c-1.2-2.9-3.5-5.2-5.9-7.1c-2.7-2.2-5.9-3.9-9.3-4.4
		c-3.4-0.4-7.2,0.7-9.3,3.5c-5.5-4.2-15.6-6.8-22.4-5.6c-2.7,0.5-5.4,1.4-8.2,1.4c-2.6,0-5.1-0.7-7.6-1.3c-7-1.6-14.3-1.8-21.4-0.6
		c-2,0.3-4.2,0.8-6-0.1c-1.6-0.8-2.6-2.4-3.8-3.7c-6.7-7.5-18.9-5.1-28-0.9s-19,9.9-28.6,7c-4.9-1.5-8.9-5.2-13.7-7.2
		S1726.7,1660.7,1724.3,1665.3z"/>
</g>
<g>
	<rect x="832" y="1612" class="st25" width="527.5" height="260"/>
	<g>
		<g>
			<path class="st26" d="M849.2,1204.4c-8.7,0-17.5-2-25.8-6.1c-9.1-4.5-224.1-113.3-275.8-329c-15.4-64.2-14.5-131.3,2.4-199.4
				c18.8-75.4,57.8-153.1,115.9-231.1c19.2-25.8,55.7-31.1,81.5-11.9c25.8,19.2,31.1,55.7,11.9,81.5
				c-89.6,120.1-122.7,232.4-98.4,333.8c20.1,84.1,77.2,148.1,121.5,186.9c48.5,42.4,92.4,64.7,92.8,64.9
				c28.8,14.3,40.6,49.2,26.3,78C891.2,1192.6,870.6,1204.4,849.2,1204.4z"/>
		</g>
		<path class="st8" d="M565.2,888.9c-4.5-7-10.6-13-14.4-20.4c-9.3-18.2-7.7-53.3,5.3-69c30.3-36.6,27.3-96.2-6.1-129.8
			c0,0.1,0,0.1-0.1,0.2c-17,68.2-17.8,135.3-2.4,199.4c5.7,23.8,13.4,46.3,22.6,67.6C575.9,921.3,574.2,903,565.2,888.9z"/>
		<path class="st8" d="M875.1,1094.1c-0.2-0.1-13-6.6-32.2-19.1c-2.9,2.2-5.9,4.3-8.9,6.4c-25.9,17.4-58.7,30.9-87.7,19.5
			c-7.7-3-14.9-7.7-23-8.7c-11.4-1.5-22.4,4.9-29.2,14.3c64.1,59.1,124.5,89.6,129.3,91.9c8.3,4.1,17.1,6.1,25.8,6.1
			c21.4,0,42-11.9,52.2-32.4C915.7,1143.3,903.9,1108.3,875.1,1094.1z"/>
		<g>
			<path class="st27" d="M1374.6,1622.1l-23-460.8c-3.9-77.4-67.8-138.2-145.3-138.2H974.1c-76.3,0-139.6,58.9-145.1,135
				l-33.3,461.5c-4.7,65.4,47.1,121,112.6,121h353.6C1326.4,1740.7,1377.8,1686.6,1374.6,1622.1z"/>
			<path class="st6" d="M853.1,1542.6c14.5-10.2,9.6-33.3,18.7-48.5c2.2-3.7,5.2-6.8,7.1-10.6c6-12.2,1.6-30.7-7.6-40.8
				c-6.1-6.7-8.8-16.4-6.9-25.3c1.3-6.2,4.6-11.8,7.4-17.5c2.8-5.7,5.3-11.9,4.8-18.2c-0.6-6.3-10.2-21.9-16.5-20.9
				c-14.7,2.2-31.7,3.7-42.3-6.7c-1-1-1.9-2.1-2.8-3.3l-14.4,200.1c3.4-1.8,7.1-3.2,11-3.9C825.5,1544.5,841.5,1550.7,853.1,1542.6z
				"/>
			<path class="st5" d="M1364,1410.5c-8.1,6.4-16.3,12.9-24.4,19.3c-2.5,2-5.1,4.1-6.9,6.9c-4.6,7.2-2,16.7,1.1,24.7
				c3.1,8,6.6,16.8,3.5,24.8c-2.7,7-6.3,16.4-13.2,19.3c-5.3,2.2-11.4,1.8-16.9,3.5c-5.5,1.7-10.9,7.1-9,12.5
				c-2.8-0.1-4.7,3.4-4.8,6.2c-0.3,7.6,2.3,15.5-0.5,22.5c-4.8,11.6-21.7,14.2-26.7,25.7c-6.9-8.4-23.5-11.3-33.5-15.4
				c-10-4.1-21.7-4.9-31.7-0.7c-10.4,4.3-14.8,18.8-9,28.5c2.9,4.9-1.8,24.1-5.5,28.3c-3.7,4.3-8.9,7-13.9,9.7
				c-8-0.5-18.6,5.9-24.1,11.8c-5.5,5.9-8.3,14.2-7.3,22.2c0.7,5.7,5.4,11.8,2.7,16.9c-3.8,7.1-11.6,11-18.9,14.5
				c-15.1,7.2-33.3-0.2-48.3,7.1c-5.2,2.5-9.5,6.7-13.3,11.1c-7.8,9.1-13.9,19.6-18,30.8h216.4c64.6,0,116-54.1,112.8-118.6
				L1364,1410.5z"/>
			<polygon class="st28" points="1060.9,1009.7 969.7,1009.7 882.1,1082.5 999.9,1086.8 953.6,1131.5 1082.8,1262.5 			"/>
			<polygon class="st28" points="1125,1009.7 1216.3,1009.7 1303.9,1082.5 1186.1,1086.8 1232.4,1131.5 1082.8,1262.5 			"/>
			<path class="st28" d="M1168.2,1273.4v49.1c0,33.4,27,60.4,60.4,60.4l0,0c33.4,0,60.4-27,60.4-60.4v-49.1H1168.2z"/>
		</g>
		<g>
			<g>
				<g>
					<circle class="st26" cx="1276.8" cy="770.2" r="78.1"/>
					<circle class="st29" cx="1276.8" cy="770.2" r="50.4"/>
					<circle class="st26" cx="896" cy="770.2" r="78.1"/>
					<circle class="st29" cx="896" cy="770.2" r="50.4"/>
					<path class="st26" d="M1085.1,493.9L1085.1,493.9c-112.6,0-203.9,91.3-203.9,203.9v147.7c0,112.6,91.3,203.9,203.9,203.9h0
						c112.6,0,203.9-91.3,203.9-203.9V697.8C1289,585.1,1197.7,493.9,1085.1,493.9z"/>
					<path class="st30" d="M1266.5,604.7c-33.8-65.8-102.3-110.9-181.4-110.9h0c-77,0-144,42.7-178.7,105.6
						C952,616.5,1062.9,642.2,1266.5,604.7z"/>
				</g>
				<path class="st29" d="M1123.4,849.1l-18.8-92.6c-4.1-20.2-32.6-21.4-38.4-1.6l-26.3,90.7c-8,27.5,12.7,54.9,41.3,54.9
					C1108.5,900.6,1128.8,875.7,1123.4,849.1z"/>
				<path class="st6" d="M1103.4,867.6c-3.3,5.1-9.4,8.2-15.5,7.9c-1-0.1-2.1-0.2-2.9-0.9c-0.9-0.8-1.1-2.3-1.1-3.5
					c0.2-4,2.4-7.5,4.6-10.9c2.2-3.3,4.4-6.8,4.8-10.8c0.4-4-1.8-9.1-5.7-9.8c-5,3.3-10.5,5.7-16.2,7.2c-2.5,0.6-5.2,1.1-7.6,0.2
					c-2.4-0.9-3.2-4.7-3.4-7.2c-0.1-1.8,0-3.6,0.1-5.4c0.8-16.9,5.5-33.3,14.2-47.9c4.6-7.7,0.7-17.6-3.2-25.7
					c-1.2-2.5-2.6-5.1-4.7-6.9c-0.1,0.4-0.3,0.7-0.4,1.1l-26.3,90.7c-8,27.5,12.7,54.9,41.3,54.9c16.6,0,30.6-9.3,37.8-22.7
					C1114.8,873.4,1108.9,869.8,1103.4,867.6z"/>
				<path class="st29" d="M997.9,810H967c-5,0-9-4-9-9v-81.1c0-5,4-9,9-9h30.9c5,0,9,4,9,9V801C1006.8,805.9,1002.8,810,997.9,810z"
					/>
				<path class="st29" d="M1208,810h-30.9c-5,0-9-4-9-9l0-81.1c0-5,4-9,9-9h30.9c5,0,9,4,9,9V801C1217,805.9,1212.9,810,1208,810z"
					/>
			</g>
			<g>
				<path class="st18" d="M1581.2,402.3h-456.9V252.4c0-46.4,37.6-84,84-84h288.9c46.4,0,84,37.6,84,84V402.3z"/>
				<g>
					<polygon class="st9" points="1443,297.3 1533.1,206.6 1592.2,206.6 1577.1,252 1507.7,297.3 					"/>
					<polygon class="st10" points="1592.2,206.6 1533.1,206.6 1533.1,206.6 1538.5,240.3 					"/>
					<polygon class="st11" points="1538.5,240.3 1577.8,249.9 1592.2,206.6 					"/>
					<polygon class="st11" points="1464.7,297.3 1507.7,297.3 1577.1,252 1577.8,249.9 1538.5,240.3 					"/>
				</g>
				<g>
					<polygon class="st9" points="1424.3,299.6 1363.2,238 1323.2,238 1333.4,268.8 1380.5,299.6 					"/>
					<polygon class="st10" points="1323.2,238 1363.2,238 1363.2,238 1359.6,260.9 					"/>
					<polygon class="st11" points="1359.6,260.9 1332.9,267.4 1323.2,238 					"/>
					<polygon class="st11" points="1409.7,299.6 1380.5,299.6 1333.4,268.8 1332.9,267.4 1359.6,260.9 					"/>
				</g>
				<path class="st5" d="M1289,402.3H832V252.4c0-46.4,37.6-84,84-84H1205c46.4,0,84,37.6,84,84V402.3z"/>
				<g>
					<polygon class="st9" points="1111.1,249.5 1050,187.9 1009.9,187.9 1020.1,218.7 1067.2,249.5 					"/>
					<polygon class="st10" points="1009.9,187.9 1050,187.9 1050,187.9 1046.3,210.8 					"/>
					<polygon class="st11" points="1046.3,210.8 1019.6,217.3 1009.9,187.9 					"/>
					<polygon class="st11" points="1096.4,249.5 1067.2,249.5 1020.1,218.7 1019.6,217.3 1046.3,210.8 					"/>
				</g>
				<g>
					<polygon class="st9" points="685.7,298.2 624.6,236.6 584.5,236.6 594.7,267.4 641.8,298.2 					"/>
					<polygon class="st10" points="584.5,236.6 624.6,236.6 624.6,236.6 620.9,259.5 					"/>
					<polygon class="st11" points="620.9,259.5 594.3,266 584.5,236.6 					"/>
					<polygon class="st11" points="671,298.2 641.8,298.2 594.7,267.4 594.3,266 620.9,259.5 					"/>
				</g>
				<g>
					<polygon class="st9" points="1073.7,298.2 1134.8,236.6 1174.9,236.6 1164.7,267.4 1117.5,298.2 					"/>
					<polygon class="st10" points="1174.9,236.6 1134.8,236.6 1134.8,236.6 1138.5,259.5 					"/>
					<polygon class="st11" points="1138.5,259.5 1165.1,266 1174.9,236.6 					"/>
					<polygon class="st11" points="1088.4,298.2 1117.5,298.2 1164.7,267.4 1165.1,266 1138.5,259.5 					"/>
				</g>
				<path class="st18" d="M1051.2,402.3H594.2V252.4c0-46.4,37.6-84,84-84h288.9c46.4,0,84,37.6,84,84V402.3z"/>
				<g>
					<polygon class="st9" points="771,297.3 861.1,206.6 920.2,206.6 905.1,252 835.7,297.3 					"/>
					<polygon class="st10" points="920.2,206.6 861.1,206.6 861.1,206.6 866.5,240.3 					"/>
					<polygon class="st11" points="866.5,240.3 905.8,249.9 920.2,206.6 					"/>
					<polygon class="st11" points="792.7,297.3 835.7,297.3 905.1,252 905.8,249.9 866.5,240.3 					"/>
				</g>
				<g>
					<polygon class="st9" points="1285,199.4 1375.1,108.6 1434.1,108.6 1419.1,154 1349.7,199.4 					"/>
					<polygon class="st10" points="1434.1,108.6 1375.1,108.6 1375.1,108.6 1380.5,142.4 					"/>
					<polygon class="st11" points="1380.5,142.4 1419.8,151.9 1434.1,108.6 					"/>
					<polygon class="st11" points="1306.7,199.4 1349.7,199.4 1419.1,154 1419.8,151.9 1380.5,142.4 					"/>
				</g>
				<g>
					<path class="st31" d="M1591.2,327.2H571.4c-29.2,0-48.4,30.4-35.9,56.8l20.7,43.6c40.5,85.4,126.6,139.9,221.2,139.9h605.4
						c91,0,174.4-50.4,216.7-131l26.9-51.1C1640.3,358.9,1621.1,327.2,1591.2,327.2z"/>
					<path class="st32" d="M1591.2,327.2H571.4c-29.2,0-48.4,30.4-35.9,56.8l19.4,41h819.9c0,0,12.8,73.9-27.4,142.6h35.3
						c91,0,174.4-50.4,216.7-131l26.9-51.1C1640.3,358.9,1621.1,327.2,1591.2,327.2z"/>
					<path class="st33" d="M1652.1,297.3H528.4c-16.3,0-29.6,13.3-29.6,29.6c0,16.3,13.3,29.6,29.6,29.6h1123.7
						c16.3,0,29.6-13.3,29.6-29.6C1681.7,310.6,1668.5,297.3,1652.1,297.3z"/>
					<path class="st34" d="M1652.1,297.3H1443c16.3,0,29.6,13.3,29.6,29.6c0,16.3-13.3,29.6-29.6,29.6h209.1
						c16.3,0,29.6-13.3,29.6-29.6C1681.7,310.6,1668.5,297.3,1652.1,297.3z"/>
				</g>
				<g>
					<path class="st5" d="M1266.8,218.2c-0.7,0-1.3,0.1-2,0.1c-2.6,0.1-5.1,1-6.9,2.9c-1.7,1.7-3,4.5-2.9,6.9
						c0.2,5.5,4.3,9.5,9.8,9.8c0.7,0,1.3,0.1,2,0.1c5.2,0.2,10.1-4.7,9.8-9.8C1276.4,222.9,1272.3,217.9,1266.8,218.2L1266.8,218.2z
						"/>
				</g>
				<g>
					<path class="st5" d="M1335.6,212.2c-0.2,0.2-0.4,0.4-0.7,0.6c-2.1,2-2.1,5.8,0,7.7c0.2,0.2,0.4,0.4,0.7,0.6
						c1.9,1.7,4.5,2.3,6.9,1.3c2.2-0.9,4-3.3,3.9-5.8C1346.1,211.2,1339.6,208.4,1335.6,212.2L1335.6,212.2z"/>
				</g>
				<g>
					<path class="st5" d="M1396.5,214.1c0,0.3,0.1,0.6,0.1,0.8c0.2,1.8,0.6,3.3,1.9,4.6c1.1,1.1,3,2,4.6,1.9
						c3.8-0.2,6.1-2.9,6.5-6.5c0-0.3,0.1-0.6,0.1-0.8c0.4-3.4-3.3-6.7-6.6-6.6C1399.9,207.7,1396.2,210.5,1396.5,214.1L1396.5,214.1
						z"/>
				</g>
				<g>
					<path class="st5" d="M1278.2,282.5c10,0,10-15.5,0-15.5C1268.2,267,1268.2,282.5,1278.2,282.5L1278.2,282.5z"/>
				</g>
				<g>
					<path class="st5" d="M1436,259.9c10.2,0,10.2-15.9,0-15.9C1425.7,244.1,1425.7,259.9,1436,259.9L1436,259.9z"/>
				</g>
				<g>
					<path class="st5" d="M965.8,263.2c-0.4,0.1-0.8,0.1-1.2,0.2c-2.7,0.4-4.9,3.7-4.8,6.3c0.1,2.6,1.9,5.8,4.8,6.3
						c0.4,0.1,0.8,0.1,1.2,0.2c2.4,0.4,4.8,0.2,6.5-1.7c1.2-1.3,2-2.9,2-4.7c0-1.7-0.7-3.5-2-4.7
						C970.5,263.1,968.3,262.9,965.8,263.2L965.8,263.2z"/>
				</g>
				<g>
					<path class="st5" d="M712.6,265.9c8.1,0,8.1-12.6,0-12.6C704.5,253.3,704.5,265.9,712.6,265.9L712.6,265.9z"/>
				</g>
				<g>
					<path class="st5" d="M756.8,213.2c8.6,0,8.6-13.4,0-13.4C748.2,199.9,748.1,213.2,756.8,213.2L756.8,213.2z"/>
				</g>
				<g>
					<path class="st5" d="M812.3,197.2c7.5,0,7.5-11.7,0-11.7C804.8,185.6,804.8,197.2,812.3,197.2L812.3,197.2z"/>
				</g>
				<g>
					<path class="st5" d="M918.5,278c-0.1-0.4-0.2-0.8-0.3-1.2c-1.4-6.1-10.9-6.1-12.4,0c-0.1,0.4-0.2,0.8-0.3,1.2
						c-1,4.2,2,8.5,6.5,8.5C916.5,286.5,919.5,282.2,918.5,278L918.5,278z"/>
				</g>
				<g>
					<path class="st5" d="M943.6,243.8c9,0,9-14,0-14C934.6,229.9,934.6,243.8,943.6,243.8L943.6,243.8z"/>
				</g>
				<g>
					<path class="st5" d="M884.3,192c8.9,0,8.9-13.8,0-13.8C875.4,178.2,875.4,192,884.3,192L884.3,192z"/>
				</g>
				<g>
					<path class="st5" d="M794.6,244.9c10.3,0,10.4-16.1,0-16.1C784.3,228.8,784.3,244.9,794.6,244.9L794.6,244.9z"/>
				</g>
			</g>
			<path class="st6" d="M1289,697.8c0-28.6-5.9-55.8-16.5-80.5c-9.1,10-17.6,22-14.3,34.7c1,3.9,3.1,7.5,4.6,11.3
				c10.5,25.5-4.7,53.7-19.5,77.1c-4.9,7.7-5.3,22-2.6,30.7c2.8,8.7,8.5,16.1,13.1,24c3.6,6.1,6.6,13,5.8,20.1
				c-1.3,11.8-12.7,22.3-9,33.6c4,12.2,20.6,12.5,33.3,14.1c1.4,0.2,2.8,0.4,4.2,0.7c0.5-6,0.8-12,0.8-18.1V697.8z"/>
		</g>
		<path class="st35" d="M857.4,1058.1c-7.7,7.5-11.6,18.8-10.2,29.5c1.4,10.7,8.1,20.5,17.5,25.8c2.6,1.5,5.5,2.6,7.7,4.6
			c2.2,2,3.8,5.2,2.8,8"/>
		<path class="st26" d="M1624.3,1700.8c-16.7-124.7-43.6-234.2-79.7-325.4c-29.9-75.3-66.3-138.8-108.3-188.7
			c-27.4-32.6-55.7-57.2-81.5-74.9c-34.6-23.6-82.2-8.5-96.6,30.9c-0.3,0.7-0.5,1.4-0.8,2.1c-12.2,33.5,5.1,71,38.9,82.5
			c18.8,6.4,39.5,19.2,59.4,44.7c51.6,65.8,120,196.3,153.2,444.2c3.9,29.2,28.9,50.5,57.6,50.5c2.6,0,5.2-0.2,7.8-0.5
			C1606.2,1762,1628.5,1732.7,1624.3,1700.8z"/>
		<path class="st6" d="M1407.3,1201.4c-0.6,7.6,2.8,14.8,6.2,21.7c7.3,15.1,15,30.6,28,41.2c8.2,6.7,18,11.1,26.4,17.5
			c8.4,6.4,15.7,15.9,15.1,26.4c-1.1,20.7-4.7,40.5,3.5,59.5c3.8,8.8,11.6,15.1,19.2,21c3.9,3,7.8,6.1,11.7,9.1
			c1.4,1.1,2.9,2.2,4.6,2.5c4,0.7,7.3-2.9,10.1-5.9c4.5-4.7,9.9-8.2,15.9-10.5c-1.1-2.8-2.2-5.7-3.3-8.5
			c-29.9-75.3-66.3-138.8-108.3-188.7c-5-5.9-10-11.5-15-16.9c-3.1,5.4-6,10.9-8.8,16.5C1410.1,1191,1407.7,1196,1407.3,1201.4z"/>
		<path class="st6" d="M1533.8,1662.3c-5.2-13.4-17.8-23.2-21.1-37.2c-3.7-15.4,5-30.8,6.4-46.6c1.4-15-4.4-30.5-15.1-41
			c-8.8-8.6-21-13.8-33.3-14.4c15,54.8,28.1,118.7,38.1,193.3c0.7,5.2,2.1,10.2,4,14.8c0.8-0.9,1.5-1.8,2.1-2.6
			C1528.4,1708.7,1542.5,1684.6,1533.8,1662.3z"/>
	</g>
</g>
</svg>
