<?xml version="1.0" encoding="utf-8"?>
<!-- Generator: Adobe Illustrator 22.1.0, SVG Export Plug-In . SVG Version: 6.00 Build 0)  -->
<svg version="1.1" xmlns="http://www.w3.org/2000/svg" xmlns:xlink="http://www.w3.org/1999/xlink" x="0px" y="0px"
	 viewBox="0 0 1500 1500" style="enable-background:new 0 0 1500 1500;" xml:space="preserve">
<style type="text/css">
	.st0{fill:#FFFFFF;}
	.st1{fill:#CCD5FF;}
	.st2{fill:#FFA4C7;}
	.st3{fill:#E6BDE3;}
	.st4{fill:#F2B89C;}
	.st5{fill:#FFD6BE;}
	.st6{fill:#8C5F39;}
	.st7{fill:#3A2311;}
	.st8{fill:#7C4D29;}
	.st9{fill:#A58659;}
	.st10{fill:#B29A72;}
	.st11{fill:#BDBEC0;}
	.st12{fill:#E8DBD1;}
	.st13{fill:#EF4D4D;}
	.st14{fill:#FF6B69;}
	.st15{fill:#AA6D35;}
	.st16{fill:#BA824A;}
	.st17{fill:#4C3524;}
</style>
<g id="Background">
	<rect class="st0" width="1500" height="1500"/>
	<g>
		<path class="st1" d="M750,218.8c-61.1-61.6-145.8-99.7-239.4-99.7c-186.3,0-337.4,151.1-337.4,337.4s151.1,337.4,337.4,337.4
			c93.6,0,178.3-38.1,239.4-99.7c-60.5-61-98-145-98-237.7S689.5,279.8,750,218.8z"/>
		<path class="st2" d="M989.4,119.1c-93.6,0-178.3,38.1-239.4,99.7c60.5,61,98,145,98,237.7s-37.4,176.7-98,237.7
			c61.1,61.6,145.8,99.7,239.4,99.7c186.3,0,337.4-151.1,337.4-337.4S1175.8,119.1,989.4,119.1z"/>
		<ellipse class="st3" cx="750" cy="456.5" rx="98" ry="237.7"/>
	</g>
</g>
<g id="Object">
	<g>
		<path class="st4" d="M799.5,891.7c0,0-3.3-5.4-6.4-11c-11.8-48.6-39.9-187.4-52.1-224.5c0,0-42,2.8-63.8,6.8
			c5,27.2,69.7,181.5,82.7,218c2.2,9.4-11.1,28.9,8.6,48.2c20,19.5,45.8,17.2,48.4,3C819.7,917.9,808.9,901.1,799.5,891.7z"/>
		<path class="st5" d="M753,839.4c-12.6-35.1-62.9-154.3-67.2-177.5c18.4-3.4,53.8-5.7,53.8-5.7c10.1,30.5,30.6,133.1,40.7,175
			c2.2,9-4.6,17.7-13.9,17.7h0C760.4,848.9,755,845.1,753,839.4z"/>
		<g>
			<path class="st6" d="M207.6,1380.9h-18V944.5c0-24.4,19.8-44.2,44.2-44.2c24.4,0,44.2,19.8,44.2,44.2v3.2h-18v-3.2
				c0-14.5-11.8-26.2-26.2-26.2s-26.2,11.8-26.2,26.2V1380.9z"/>
		</g>
		<path class="st4" d="M222.3,891.7c0,0,3.3-5.4,6.4-11c11.8-48.6,39.9-187.4,52.1-224.5c0,0,42,2.8,63.8,6.8
			c-5,27.2-69.7,181.5-82.7,218c-2.2,9.4,11.1,28.9-8.6,48.2c-20,19.5-45.8,17.2-48.4,3C202.1,917.9,213,901.1,222.3,891.7z"/>
		<path class="st5" d="M268.2,839.4c12.6-35.1,62.9-154.3,67.2-177.5c-18.4-3.4-53.8-5.7-53.8-5.7c-10.1,30.5-30.6,133.1-40.7,175
			c-2.2,9,4.6,17.7,13.9,17.7h0C260.8,848.9,266.1,845.1,268.2,839.4z"/>
		<g>
			<g>
				<g>
					<path class="st7" d="M430,1350.1c-1.3,3.7-61.3,21.5-67,27.2c-5.7,5.7,79.7,3.6,87.3-0.7c7.5-4.4,3.3-26.5,3.3-26.5H430z"/>
					<path class="st7" d="M591.1,1350.1c1.3,3.7,61.3,21.5,67,27.2c5.7,5.7-79.7,3.6-87.3-0.7c-7.5-4.4-3.3-26.5-3.3-26.5H591.1z"/>
				</g>
				<path class="st8" d="M660.7,859.1c0,106.5-65.3,493.6-65.3,493.6h-29l-55.7-354.5l-55.7,354.5h-29c0,0-65.3-387.1-65.3-493.6
					L510.6,789L660.7,859.1z"/>
				<path class="st6" d="M642.8,900.8c-9.8,141.3-47.5,451.9-47.5,451.9h-25.6l-59.1-417.4l-59.2,417.4h-25.6
					c0,0-37.7-310.6-47.5-451.9H642.8z"/>
			</g>
			<path class="st9" d="M675.1,675.5c-13.3-58.7-40-118-40-118c26.7,130.7,39,171.2,39,313c-105.3,0-163.5,0-163.5,0
				s-58.2,0-163.5,0c0-141.9,12.3-182.4,39-313c0,0-26.7,59.3-40,118c0,0-52.7-7.7-75.7-12.7c42.5-214.7,125.7-247.6,240.2-247.6
				s197.7,33,240.2,247.6C727.8,667.8,675.1,675.5,675.1,675.5z"/>
			<path class="st10" d="M403.6,433.1c-60.1,26.5-105.4,89.1-133.3,229.7c9,1.9,35.1,6.3,48.2,8.5c26-90.5,43.2-113.7,78.3-175.5
				C409.7,473.1,413.9,446.7,403.6,433.1z"/>
			<path class="st10" d="M617.5,433.1c60.1,26.5,105.4,89.1,133.3,229.7c-9,1.9-35.1,6.3-48.2,8.5c-26-90.5-43.2-113.7-78.3-175.5
				C611.4,473.1,607.2,446.7,617.5,433.1z"/>
			<path class="st10" d="M386,703.2c-1,11.9-1.8,24.1-2.5,37.1c-3.3,63.1,47,116,110.2,116h16.8h16.8c63.2,0,113.5-52.9,110.2-116
				c-0.7-12.9-1.5-25.2-2.5-37.1c-5.2-65-59.4-115.1-124.5-115.1h0C445.4,588.1,391.3,638.2,386,703.2z"/>
			<path class="st4" d="M510.6,464.7L510.6,464.7c-16.3,0-29.6-13.3-29.6-29.6v-86.2h59.2v86.2C540.2,451.4,526.9,464.7,510.6,464.7
				z"/>
			<g>
				<path class="st5" d="M591.6,297c0-9.6-7.8-17.4-17.4-17.4c-2.8,0-5.4,0.7-7.7,1.8c-11.9-32.9-32.5-58.6-56-58.6
					c-23.5,0-44.1,25.7-56,58.6c-2.3-1.2-4.9-1.8-7.7-1.8c-9.6,0-17.4,7.8-17.4,17.4c0,9.3,7.4,16.9,16.6,17.3
					c-1.4,8.9-2.2,17.9-2.2,26.7c0,36.8,29.8,66.6,66.6,66.6c36.8,0,66.6-29.8,66.6-66.6c0-8.8-0.8-17.8-2.2-26.7
					C584.2,314,591.6,306.4,591.6,297z"/>
				<path class="st11" d="M448,279.7c5.3-20.1,18.2-38.1,30.6-40.3c3.8-0.7-11.6,35.5-17.1,61c-2.9,13.3-5.3-0.1-4.4-12.5
					C457.4,283.9,452.7,281.8,448,279.7z"/>
				<path class="st11" d="M573.1,279.7c-5.3-20.1-18.2-38.1-30.6-40.3c-3.8-0.7,11.6,35.5,17.1,61c2.9,13.3,5.3-0.1,4.4-12.5
					C563.8,283.9,568.5,281.8,573.1,279.7z"/>
			</g>
		</g>
		<path class="st5" d="M792.3,884.6c-12.3,9-28.5,25-29.3,36c-1.1,15.8,13.9,22.3,28.7,22.3s18.9-23.3,23.2-24.8
			c14.8-5,0.2-17.7,0.2-41.7C815.2,860.2,792.3,884.6,792.3,884.6z"/>
		<g>
			<path class="st6" d="M1227,1380.9h18V954.2c0-24.4-19.8-44.2-44.2-44.2c-24.4,0-44.2,19.8-44.2,44.2v3.2h18v-3.2
				c0-14.5,11.8-26.2,26.2-26.2s26.2,11.8,26.2,26.2V1380.9z"/>
		</g>
		<path class="st5" d="M1193.2,884.6c12.3,9,28.5,25,29.3,36c1.1,15.8-13.9,22.3-28.7,22.3c-14.9,0-18.9-23.3-23.2-24.8
			c-14.8-5-0.2-17.7-0.2-41.7C1170.3,860.2,1193.2,884.6,1193.2,884.6z"/>
		<g>
			<g>
				<g>
					<path class="st5" d="M1114.2,1377.5c-5.4-5.4-54.2-27-55.4-30.6c-1.5-22.3,2.1-175.8,2.1-175.8l-53.6,47.7
						c16.7,109,22,117.9,20.9,132.8c0,0-4.1,21,3.1,25.2C1038.5,1381,1119.6,1383,1114.2,1377.5z"/>
					<g>
						<g>
							<path class="st7" d="M1114.2,1377.5c-3.1-3.1-19.9-13.7-36.7-19.7c-14.2,10.2-34.5,10-50.3,5.8c0,5.5,0.9,11.3,4.2,13.2
								C1038.5,1381,1119.6,1383,1114.2,1377.5z"/>
						</g>
					</g>
				</g>
				<g>
					<path class="st5" d="M864.7,1377.5c5.4-5.4,54.2-27,55.4-30.6c1.5-22.3-2.1-175.8-2.1-175.8l53.6,47.7
						c-16.7,109-22,117.9-20.9,132.8c0,0,4.1,21-3.1,25.2C940.4,1381,859.3,1383,864.7,1377.5z"/>
					<g>
						<g>
							<path class="st7" d="M864.7,1377.5c3.1-3.1,19.9-13.7,36.7-19.7c14.2,10.2,34.5,10,50.3,5.8c0,5.5-0.9,11.3-4.2,13.2
								C940.4,1381,859.3,1383,864.7,1377.5z"/>
						</g>
					</g>
				</g>
			</g>
			<path class="st12" d="M993.1,874.9L993.1,874.9c-36.4,0-65.9-29.5-65.9-65.9V533.6c0-36.4,29.5-65.9,65.9-65.9h0
				c36.4,0,65.9,29.5,65.9,65.9V809C1059,845.4,1029.5,874.9,993.1,874.9z"/>
			<path class="st0" d="M993.1,814.5L993.1,814.5c-24.9,0-45.2-20.2-45.2-45.2V580.8c0-24.9,20.2-45.2,45.2-45.2h0
				c24.9,0,45.2,20.2,45.2,45.2v188.6C1038.2,794.3,1018,814.5,993.1,814.5z"/>
			<path class="st13" d="M1086.8,1237.7c4.9-106.2,16-298.4,3.3-403.4l-28.1-69.5H916.8l-28.1,69.5c-12.7,104.9-1.5,297.2,3.3,403.4
				H1086.8z"/>
			<path class="st14" d="M1070.4,1237.7c3.9-93.6,12.6-260.3,3.9-358.3c-0.6-7.1-2.2-14.1-4.7-20.8l0,0
				c-11.9-32.4-42.7-53.9-77.1-53.9h-6c-34.5,0-65.3,21.5-77.1,53.9l0,0c-2.5,6.7-4,13.6-4.7,20.7c-8.8,98-0.1,264.7,3.9,358.3
				H1070.4z"/>
			<g>
				<g>
					<path class="st15" d="M971.6,464.5c-138.7,0-196.2,282.4-198.8,432h55.9c5.4-175.6,71.5-297,71.5-297
						c-3,72.4-8.3,171.3-19.7,246.4l62.9,28.4C943.5,708.9,942.1,535.1,971.6,464.5z"/>
				</g>
				<g>
					<path class="st16" d="M880.6,845.9l62.9,28.4c0-100.4-0.5-204,5.7-285.6C893.5,722.2,919.9,726.6,880.6,845.9z"/>
				</g>
				<g>
					<path class="st16" d="M913.9,482.7c-79.8,53.1-122.1,212.4-135.9,337.9C827.9,774,853,609,916.7,536c10.4-11.9,16-27.3,16-43.1
						v0C932.7,483.2,921.9,477.3,913.9,482.7z"/>
				</g>
			</g>
			<g>
				<g>
					<path class="st15" d="M1014.5,464.5c138.7,0,196.2,282.4,198.8,432h-55.9c-5.4-175.6-71.5-297-71.5-297
						c3,72.4,8.3,171.3,19.7,246.4l-62.9,28.4C1042.6,708.9,1044,535.1,1014.5,464.5z"/>
				</g>
				<g>
					<path class="st16" d="M1105.6,845.9l-62.9,28.4c0-100.4,0.5-204-5.7-285.6C1092.6,722.2,1066.2,726.6,1105.6,845.9z"/>
				</g>
				<g>
					<path class="st16" d="M1072.2,482.7c79.8,53.1,122.1,212.4,135.9,337.9c-49.9-46.6-75-211.6-138.8-284.6
						c-10.4-11.9-16-27.3-16-43.1v0C1053.4,483.2,1064.2,477.3,1072.2,482.7z"/>
				</g>
			</g>
			<path class="st4" d="M993.1,511.5L993.1,511.5c-15.5,0-28.1-12.6-28.1-28.1v-81.8h56.2v81.8
				C1021.1,498.9,1008.6,511.5,993.1,511.5z"/>
			<path class="st11" d="M1073.6,444.7c3.3-15.3,5-31.7,5-48.9c0-79.7-38.3-144.4-85.5-144.4c-47.2,0-85.5,64.6-85.5,144.4
				c0,17.1,1.8,33.6,5,48.9H1073.6z"/>
			<g>
				<path class="st5" d="M1070,352.4c0-9.1-7.4-16.5-16.5-16.5c-2.6,0-5.1,0.6-7.3,1.7c-11.3-31.2-30.8-55.6-53.1-55.6
					s-41.9,24.4-53.1,55.6c-2.2-1.1-4.7-1.7-7.3-1.7c-9.1,0-16.5,7.4-16.5,16.5c0,8.9,7,16.1,15.8,16.4c-1.4,8.4-2.1,17-2.1,25.3
					c0,34.9,28.3,63.2,63.2,63.2c34.9,0,63.2-28.3,63.2-63.2c0-8.3-0.7-16.8-2.1-25.3C1063,368.5,1070,361.3,1070,352.4z"/>
			</g>
			<path class="st11" d="M1046.2,337.7c-11.3,16-41.7-3.4-53.1-28.4c-11.5,25-41.8,44.5-53.1,28.4c-4.9-30,21.5-66,53.1-66
				C1024.7,271.7,1051.1,307.6,1046.2,337.7z"/>
		</g>
		<g>
			<path class="st17" d="M454.4,870.5h-32.6V420.7c7.3-5.7,22.3-7.6,32.6-4.4L454.4,870.5z"/>
			<path class="st17" d="M566.7,870.5h32.6V420.7c-7.3-5.7-22.3-7.6-32.6-4.4L566.7,870.5z"/>
		</g>
	</g>
</g>
</svg>
